<?xml version="1.0" encoding="UTF-8" standalone="no"?>
<svg
   xmlns:dc="http://purl.org/dc/elements/1.1/"
   xmlns:cc="http://creativecommons.org/ns#"
   xmlns:rdf="http://www.w3.org/1999/02/22-rdf-syntax-ns#"
   xmlns:svg="http://www.w3.org/2000/svg"
   xmlns="http://www.w3.org/2000/svg"
   xmlns:sodipodi="http://sodipodi.sourceforge.net/DTD/sodipodi-0.dtd"
   xmlns:inkscape="http://www.inkscape.org/namespaces/inkscape"
   height="48"
   width="48"
   version="1.1"
   id="svg4"
   sodipodi:docname="sensors.svg"
   inkscape:version="1.0.2 (e86c870879, 2021-01-15)">
  <metadata
     id="metadata10">
    <rdf:RDF>
      <cc:Work
         rdf:about="">
        <dc:format>image/svg+xml</dc:format>
        <dc:type
           rdf:resource="http://purl.org/dc/dcmitype/StillImage" />
      </cc:Work>
    </rdf:RDF>
  </metadata>
  <defs
     id="defs8" />
  <sodipodi:namedview
     pagecolor="#ffffff"
     bordercolor="#666666"
     borderopacity="1"
     objecttolerance="10"
     gridtolerance="10"
     guidetolerance="10"
     inkscape:pageopacity="0"
     inkscape:pageshadow="2"
     inkscape:window-width="1366"
     inkscape:window-height="740"
     id="namedview6"
     showgrid="false"
     inkscape:zoom="11.9375"
     inkscape:cx="24"
     inkscape:cy="24"
     inkscape:window-x="0"
     inkscape:window-y="0"
     inkscape:window-maximized="1"
     inkscape:current-layer="svg4" />
  <path
     d="M9.85 38.15q-2.7-2.7-4.275-6.325Q4 28.2 4 24t1.575-7.825Q7.15 12.55 9.85 9.85L12 12q-2.3 2.3-3.65 5.375T7 24q0 3.55 1.325 6.6T12 36Zm5.65-5.65q-1.6-1.6-2.55-3.775Q12 26.55 12 24t.95-4.725Q13.9 17.1 15.5 15.5l2.15 2.15q-1.2 1.2-1.925 2.825Q15 22.1 15 24t.7 3.5q.7 1.6 1.95 2.85ZM24 28q-1.65 0-2.825-1.175Q20 25.65 20 24q0-1.65 1.175-2.825Q22.35 20 24 20q1.65 0 2.825 1.175Q28 22.35 28 24q0 1.65-1.175 2.825Q25.65 28 24 28Zm8.5 4.5-2.15-2.15q1.2-1.2 1.925-2.825Q33 25.9 33 24t-.7-3.5q-.7-1.6-1.95-2.85l2.15-2.15q1.6 1.6 2.55 3.775Q36 21.45 36 24q0 2.5-.95 4.675T32.5 32.5Zm5.65 5.65L36 36q2.3-2.3 3.65-5.375T41 24q0-3.55-1.325-6.6T36 12l2.15-2.15q2.7 2.75 4.275 6.375Q44 19.85 44 24t-1.575 7.775Q40.85 35.4 38.15 38.15Z"
     id="path2"
     style="opacity:0.6;fill:#00162a;fill-opacity:1" />
</svg>
