<?xml version="1.0" encoding="UTF-8" standalone="no"?>
<svg
   xmlns:dc="http://purl.org/dc/elements/1.1/"
   xmlns:cc="http://creativecommons.org/ns#"
   xmlns:rdf="http://www.w3.org/1999/02/22-rdf-syntax-ns#"
   xmlns:svg="http://www.w3.org/2000/svg"
   xmlns="http://www.w3.org/2000/svg"
   xmlns:sodipodi="http://sodipodi.sourceforge.net/DTD/sodipodi-0.dtd"
   xmlns:inkscape="http://www.inkscape.org/namespaces/inkscape"
   height="48"
   width="48"
   version="1.1"
   id="svg4"
   sodipodi:docname="settings_input_antenna.svg"
   inkscape:version="1.0.2 (e86c870879, 2021-01-15)">
  <metadata
     id="metadata10">
    <rdf:RDF>
      <cc:Work
         rdf:about="">
        <dc:format>image/svg+xml</dc:format>
        <dc:type
           rdf:resource="http://purl.org/dc/dcmitype/StillImage" />
      </cc:Work>
    </rdf:RDF>
  </metadata>
  <defs
     id="defs8" />
  <sodipodi:namedview
     pagecolor="#ffffff"
     bordercolor="#666666"
     borderopacity="1"
     objecttolerance="10"
     gridtolerance="10"
     guidetolerance="10"
     inkscape:pageopacity="0"
     inkscape:pageshadow="2"
     inkscape:window-width="1366"
     inkscape:window-height="740"
     id="namedview6"
     showgrid="false"
     inkscape:zoom="11.9375"
     inkscape:cx="24"
     inkscape:cy="24"
     inkscape:window-x="0"
     inkscape:window-y="0"
     inkscape:window-maximized="1"
     inkscape:current-layer="svg4" />
  <path
     d="M2 24q0-4.6 1.725-8.6T8.45 8.425q3-2.975 7-4.7T24 2q4.55 0 8.55 1.725 4 1.725 7 4.7t4.725 6.975Q46 19.4 46 24h-3q0-3.95-1.5-7.425-1.5-3.475-4.075-6.05-2.575-2.575-6.05-4.05Q27.9 5 24 5t-7.375 1.475q-3.475 1.475-6.05 4.05Q8 13.1 6.5 16.575 5 20.05 5 24Zm8.75 0q0-5.55 3.875-9.4Q18.5 10.75 24 10.75t9.375 3.85q3.875 3.85 3.875 9.4h-3q0-4.3-3-7.275-3-2.975-7.25-2.975t-7.25 2.975q-3 2.975-3 7.275ZM18 44.8l-2.1-2.1 6.6-6.6v-7.8q-1.35-.6-2.175-1.775Q19.5 25.35 19.5 24q0-1.9 1.3-3.2 1.3-1.3 3.2-1.3 1.9 0 3.2 1.3 1.3 1.3 1.3 3.2 0 1.35-.825 2.525Q26.85 27.7 25.5 28.3v7.8l6.6 6.6-2.1 2.1-6-6Z"
     id="path2"
     style="opacity:0.6;fill:#00162a;fill-opacity:1" />
</svg>
